<mxfile host="Electron" agent="Mozilla/5.0 (Windows NT 10.0; Win64; x64) AppleWebKit/537.36 (KHTML, like Gecko) draw.io/24.7.5 Chrome/126.0.6478.183 Electron/31.3.0 Safari/537.36" version="24.7.5">
  <diagram name="Page-1" id="BY2GdVJ9Qx3QBZno3a6H">
    <mxGraphModel dx="3034" dy="3536" grid="1" gridSize="10" guides="1" tooltips="1" connect="1" arrows="1" fold="1" page="1" pageScale="1" pageWidth="1600" pageHeight="900" math="0" shadow="0">
      <root>
        <mxCell id="0" />
        <mxCell id="1" parent="0" />
        <mxCell id="Mc8-L0GyPkzgZiNC3ZI8-2" value="" style="group;movable=1;resizable=1;rotatable=1;deletable=1;editable=1;locked=0;connectable=1;" parent="1" vertex="1" connectable="0">
          <mxGeometry x="-1430" y="-1690" width="1680" height="2420" as="geometry" />
        </mxCell>
        <mxCell id="cGPuWbrJMK2eRQ6o65dL-1" value="" style="strokeWidth=1;shadow=0;dashed=0;align=center;html=1;shape=mxgraph.mockup.containers.browserWindow;rSize=0;strokeColor=#666666;strokeColor2=#008cff;strokeColor3=#c4c4c4;mainText=,;recursiveResize=0;container=0;movable=0;resizable=0;rotatable=0;deletable=0;editable=0;locked=1;connectable=0;" parent="Mc8-L0GyPkzgZiNC3ZI8-2" vertex="1">
          <mxGeometry width="1580" height="2420" as="geometry" />
        </mxCell>
        <mxCell id="cGPuWbrJMK2eRQ6o65dL-4" value="Page 1" style="strokeWidth=1;shadow=0;dashed=0;align=center;html=1;shape=mxgraph.mockup.containers.anchor;fontSize=17;fontColor=#666666;align=left;whiteSpace=wrap;" parent="Mc8-L0GyPkzgZiNC3ZI8-2" vertex="1">
          <mxGeometry x="60" y="12" width="110" height="26" as="geometry" />
        </mxCell>
        <mxCell id="cGPuWbrJMK2eRQ6o65dL-5" value="https://www.devflix.com/catalogue/" style="strokeWidth=1;shadow=0;dashed=0;align=center;html=1;shape=mxgraph.mockup.containers.anchor;rSize=0;fontSize=17;fontColor=#666666;align=left;" parent="Mc8-L0GyPkzgZiNC3ZI8-2" vertex="1">
          <mxGeometry x="130" y="60" width="340" height="26" as="geometry" />
        </mxCell>
        <mxCell id="cGPuWbrJMK2eRQ6o65dL-15" value="Mentions Legales" style="fillColor=none;strokeColor=none;html=1;fontColor=#0057D8;align=center;verticalAlign=middle;fontStyle=0;fontSize=17;" parent="Mc8-L0GyPkzgZiNC3ZI8-2" vertex="1">
          <mxGeometry x="95" y="2300" width="250" height="75" as="geometry" />
        </mxCell>
        <mxCell id="cGPuWbrJMK2eRQ6o65dL-16" value="FAQ" style="fillColor=none;strokeColor=none;html=1;fontColor=#0057D8;align=center;verticalAlign=middle;fontStyle=0;fontSize=17;fontFamily=Helvetica;" parent="Mc8-L0GyPkzgZiNC3ZI8-2" vertex="1">
          <mxGeometry x="485" y="2300" width="250" height="75" as="geometry" />
        </mxCell>
        <mxCell id="cGPuWbrJMK2eRQ6o65dL-17" value="Contacts" style="fillColor=none;strokeColor=none;html=1;fontColor=#0057D8;align=center;verticalAlign=middle;fontStyle=0;fontSize=17;fontFamily=Helvetica;" parent="Mc8-L0GyPkzgZiNC3ZI8-2" vertex="1">
          <mxGeometry x="865" y="2300" width="250" height="75" as="geometry" />
        </mxCell>
        <mxCell id="cGPuWbrJMK2eRQ6o65dL-18" value="Carrière&amp;nbsp;" style="fillColor=none;strokeColor=none;html=1;fontColor=#0057D8;align=center;verticalAlign=middle;fontStyle=0;fontSize=17;fontFamily=Helvetica;" parent="Mc8-L0GyPkzgZiNC3ZI8-2" vertex="1">
          <mxGeometry x="1235" y="2300" width="250" height="75" as="geometry" />
        </mxCell>
        <mxCell id="evL7qPlJDV0qZez4wCuW-3" value="&lt;font color=&quot;#ffffff&quot;&gt;C6&lt;/font&gt;" style="strokeWidth=1;shadow=0;dashed=0;align=center;html=1;shape=mxgraph.mockup.text.callout;linkText=;textSize=17;textColor=#666666;callDir=NW;callStyle=line;fontSize=17;fontColor=#666666;align=left;verticalAlign=top;strokeColor=#666666;" parent="Mc8-L0GyPkzgZiNC3ZI8-2" vertex="1">
          <mxGeometry x="350" y="150" width="200" height="100" as="geometry" />
        </mxCell>
        <mxCell id="evL7qPlJDV0qZez4wCuW-4" value="&lt;font style=&quot;font-size: 17px;&quot;&gt;Rechercher&lt;/font&gt;" style="strokeWidth=1;shadow=0;dashed=0;align=center;html=1;shape=mxgraph.mockup.forms.searchBox;strokeColor=#999999;mainText=;strokeColor2=#008cff;fontColor=#666666;fontSize=17;align=left;spacingLeft=3;whiteSpace=wrap;" parent="Mc8-L0GyPkzgZiNC3ZI8-2" vertex="1">
          <mxGeometry x="530" y="240" width="220" height="30" as="geometry" />
        </mxCell>
        <mxCell id="cGPuWbrJMK2eRQ6o65dL-2" value="Devflix" style="text;html=1;points=[];align=left;verticalAlign=top;spacingTop=-4;fontSize=45;fontFamily=Verdana;" parent="1" vertex="1">
          <mxGeometry x="-1380" y="-1540" width="340" height="50" as="geometry" />
        </mxCell>
        <mxCell id="Mc8-L0GyPkzgZiNC3ZI8-1" value="&lt;font style=&quot;font-size: 17px;&quot;&gt;&amp;nbsp; &amp;nbsp;Vue : catalogue&lt;br&gt;&amp;nbsp; &amp;nbsp;Auteur : Nelson Therrien&lt;br&gt;&amp;nbsp; &amp;nbsp;Date de création : 2024-08-11&lt;br&gt;&amp;nbsp; &amp;nbsp;Date mise à jour : 2024-08-13&lt;/font&gt;" style="rounded=0;whiteSpace=wrap;html=1;align=left;fillColor=#4D4D4D;strokeColor=#000000;" parent="1" vertex="1">
          <mxGeometry x="-1430" y="-1920" width="580" height="150" as="geometry" />
        </mxCell>
        <mxCell id="cvYz6UIour9g6zkGq-vF-1" value="&lt;font style=&quot;font-size: 32px;&quot;&gt;Catalogue de films&lt;/font&gt;" style="text;align=left;fontStyle=1;verticalAlign=middle;spacingLeft=3;spacingRight=3;strokeColor=none;rotatable=0;points=[[0,0.5],[1,0.5]];portConstraint=eastwest;html=1;fontSize=26;" parent="1" vertex="1">
          <mxGeometry x="-1380" y="-1446" width="230" height="26" as="geometry" />
        </mxCell>
        <mxCell id="cvYz6UIour9g6zkGq-vF-2" value="" style="shape=mxgraph.mockup.containers.marginRect;rectMarginTop=10;strokeColor=#666666;strokeWidth=8;rounded=1;arcSize=5;recursiveResize=0;html=1;whiteSpace=wrap;movable=1;resizable=1;rotatable=1;deletable=1;editable=1;locked=0;connectable=1;" parent="1" vertex="1">
          <mxGeometry x="-1380" y="-735" width="1490" height="600" as="geometry" />
        </mxCell>
        <mxCell id="cvYz6UIour9g6zkGq-vF-3" value="Comédies" style="shape=rect;strokeColor=#3700CC;fillColor=#6a00ff;strokeWidth=1;dashed=0;rounded=1;arcSize=20;fontSize=22;spacing=2;spacingTop=-2;align=left;autosize=1;spacingLeft=4;resizeWidth=0;resizeHeight=0;perimeter=none;html=1;whiteSpace=wrap;fontColor=#ffffff;" parent="cvYz6UIour9g6zkGq-vF-2" vertex="1">
          <mxGeometry x="10" width="120" height="40" as="geometry" />
        </mxCell>
        <mxCell id="cvYz6UIour9g6zkGq-vF-4" value="" style="verticalLabelPosition=bottom;shadow=0;dashed=0;align=center;html=1;verticalAlign=top;strokeWidth=1;shape=mxgraph.mockup.navigation.scrollBar;strokeColor=#999999;barPos=20;fillColor2=#99ddff;strokeColor2=none;" parent="cvYz6UIour9g6zkGq-vF-2" vertex="1">
          <mxGeometry x="30" y="490" width="1440" height="151" as="geometry" />
        </mxCell>
        <mxCell id="cvYz6UIour9g6zkGq-vF-5" value="&lt;font style=&quot;font-size: 22px;&quot;&gt;&lt;b&gt;Titre&lt;/b&gt;&lt;/font&gt;&lt;br&gt;&lt;font style=&quot;font-size: 17px;&quot;&gt;Genre&lt;br&gt;Détails&lt;/font&gt;" style="html=1;shadow=0;dashed=0;shape=mxgraph.bootstrap.rrect;rSize=5;strokeColor=#DFDFDF;html=1;whiteSpace=wrap;fillColor=#ffffff;fontColor=#000000;verticalAlign=bottom;align=left;spacing=20;fontSize=20;movable=1;resizable=1;rotatable=1;deletable=1;editable=1;locked=0;connectable=1;" parent="cvYz6UIour9g6zkGq-vF-2" vertex="1">
          <mxGeometry x="1150" y="49" width="290" height="400" as="geometry" />
        </mxCell>
        <mxCell id="cvYz6UIour9g6zkGq-vF-6" value="Affiche du film" style="html=1;shadow=0;dashed=0;shape=mxgraph.bootstrap.topButton;rSize=5;perimeter=none;whiteSpace=wrap;fillColor=#868E96;strokeColor=#DFDFDF;fontColor=#DEE2E6;resizeWidth=1;fontSize=20;movable=1;resizable=1;rotatable=1;deletable=1;editable=1;locked=0;connectable=1;" parent="cvYz6UIour9g6zkGq-vF-5" vertex="1">
          <mxGeometry width="290" height="290" relative="1" as="geometry" />
        </mxCell>
        <mxCell id="cvYz6UIour9g6zkGq-vF-7" value="Ajouter au panier" style="rounded=1;fillColor=#008a00;strokeColor=#005700;html=1;whiteSpace=wrap;fontColor=#ffffff;align=center;verticalAlign=middle;fontStyle=0;fontSize=17;sketch=0;fontFamily=Helvetica;" parent="cvYz6UIour9g6zkGq-vF-5" vertex="1">
          <mxGeometry x="130.00478260869556" y="312.851045751634" width="126.08695652173914" height="52.28758169934641" as="geometry" />
        </mxCell>
        <mxCell id="cvYz6UIour9g6zkGq-vF-8" value="&lt;font style=&quot;font-size: 22px;&quot;&gt;&lt;b&gt;Titre&lt;/b&gt;&lt;/font&gt;&lt;br&gt;&lt;font style=&quot;font-size: 17px;&quot;&gt;Genre&lt;br&gt;Détails&lt;/font&gt;" style="html=1;shadow=0;dashed=0;shape=mxgraph.bootstrap.rrect;rSize=5;strokeColor=#DFDFDF;html=1;whiteSpace=wrap;fillColor=#ffffff;fontColor=#000000;verticalAlign=bottom;align=left;spacing=20;fontSize=20;movable=1;resizable=1;rotatable=1;deletable=1;editable=1;locked=0;connectable=1;" parent="cvYz6UIour9g6zkGq-vF-2" vertex="1">
          <mxGeometry x="790" y="49" width="290" height="400" as="geometry" />
        </mxCell>
        <mxCell id="cvYz6UIour9g6zkGq-vF-9" value="Affiche du film" style="html=1;shadow=0;dashed=0;shape=mxgraph.bootstrap.topButton;rSize=5;perimeter=none;whiteSpace=wrap;fillColor=#868E96;strokeColor=#DFDFDF;fontColor=#DEE2E6;resizeWidth=1;fontSize=20;movable=1;resizable=1;rotatable=1;deletable=1;editable=1;locked=0;connectable=1;" parent="cvYz6UIour9g6zkGq-vF-8" vertex="1">
          <mxGeometry width="290" height="290" relative="1" as="geometry" />
        </mxCell>
        <mxCell id="cvYz6UIour9g6zkGq-vF-10" value="Ajouter au panier" style="rounded=1;fillColor=#008a00;strokeColor=#005700;html=1;whiteSpace=wrap;fontColor=#ffffff;align=center;verticalAlign=middle;fontStyle=0;fontSize=17;sketch=0;fontFamily=Helvetica;" parent="cvYz6UIour9g6zkGq-vF-8" vertex="1">
          <mxGeometry x="130.00478260869556" y="312.851045751634" width="126.08695652173914" height="52.28758169934641" as="geometry" />
        </mxCell>
        <mxCell id="cvYz6UIour9g6zkGq-vF-11" value="&lt;font style=&quot;font-size: 22px;&quot;&gt;&lt;b&gt;Titre&lt;/b&gt;&lt;/font&gt;&lt;br&gt;&lt;font style=&quot;font-size: 17px;&quot;&gt;Genre&lt;br&gt;Détails&lt;/font&gt;" style="html=1;shadow=0;dashed=0;shape=mxgraph.bootstrap.rrect;rSize=5;strokeColor=#DFDFDF;html=1;whiteSpace=wrap;fillColor=#ffffff;fontColor=#000000;verticalAlign=bottom;align=left;spacing=20;fontSize=20;movable=1;resizable=1;rotatable=1;deletable=1;editable=1;locked=0;connectable=1;" parent="cvYz6UIour9g6zkGq-vF-2" vertex="1">
          <mxGeometry x="427" y="49" width="290" height="400" as="geometry" />
        </mxCell>
        <mxCell id="cvYz6UIour9g6zkGq-vF-12" value="Affiche du film" style="html=1;shadow=0;dashed=0;shape=mxgraph.bootstrap.topButton;rSize=5;perimeter=none;whiteSpace=wrap;fillColor=#868E96;strokeColor=#DFDFDF;fontColor=#DEE2E6;resizeWidth=1;fontSize=20;movable=1;resizable=1;rotatable=1;deletable=1;editable=1;locked=0;connectable=1;" parent="cvYz6UIour9g6zkGq-vF-11" vertex="1">
          <mxGeometry width="290" height="290" relative="1" as="geometry" />
        </mxCell>
        <mxCell id="cvYz6UIour9g6zkGq-vF-13" value="Ajouter au panier" style="rounded=1;fillColor=#008a00;strokeColor=#005700;html=1;whiteSpace=wrap;fontColor=#ffffff;align=center;verticalAlign=middle;fontStyle=0;fontSize=17;sketch=0;fontFamily=Helvetica;" parent="cvYz6UIour9g6zkGq-vF-11" vertex="1">
          <mxGeometry x="130.00478260869556" y="312.851045751634" width="126.08695652173914" height="52.28758169934641" as="geometry" />
        </mxCell>
        <mxCell id="cvYz6UIour9g6zkGq-vF-14" value="&lt;font style=&quot;font-size: 22px;&quot;&gt;&lt;b&gt;Titre&lt;/b&gt;&lt;/font&gt;&lt;br&gt;&lt;font style=&quot;font-size: 17px;&quot;&gt;Genre&lt;br&gt;Détails&lt;/font&gt;" style="html=1;shadow=0;dashed=0;shape=mxgraph.bootstrap.rrect;rSize=5;strokeColor=#DFDFDF;html=1;whiteSpace=wrap;fillColor=#ffffff;fontColor=#000000;verticalAlign=bottom;align=left;spacing=20;fontSize=20;movable=1;resizable=1;rotatable=1;deletable=1;editable=1;locked=0;connectable=1;" parent="cvYz6UIour9g6zkGq-vF-2" vertex="1">
          <mxGeometry x="60" y="49" width="290" height="400" as="geometry" />
        </mxCell>
        <mxCell id="cvYz6UIour9g6zkGq-vF-15" value="Affiche du film" style="html=1;shadow=0;dashed=0;shape=mxgraph.bootstrap.topButton;rSize=5;perimeter=none;whiteSpace=wrap;fillColor=#868E96;strokeColor=#DFDFDF;fontColor=#DEE2E6;resizeWidth=1;fontSize=20;movable=1;resizable=1;rotatable=1;deletable=1;editable=1;locked=0;connectable=1;" parent="cvYz6UIour9g6zkGq-vF-14" vertex="1">
          <mxGeometry width="290" height="290" relative="1" as="geometry" />
        </mxCell>
        <mxCell id="cvYz6UIour9g6zkGq-vF-16" value="Ajouter au panier" style="rounded=1;fillColor=#008a00;strokeColor=#005700;html=1;whiteSpace=wrap;fontColor=#ffffff;align=center;verticalAlign=middle;fontStyle=0;fontSize=17;sketch=0;fontFamily=Helvetica;" parent="cvYz6UIour9g6zkGq-vF-14" vertex="1">
          <mxGeometry x="130.00478260869556" y="312.851045751634" width="126.08695652173914" height="52.28758169934641" as="geometry" />
        </mxCell>
        <mxCell id="cvYz6UIour9g6zkGq-vF-17" value="&lt;font color=&quot;#ffffff&quot;&gt;C5&lt;/font&gt;" style="strokeWidth=1;shadow=0;dashed=0;align=center;html=1;shape=mxgraph.mockup.text.callout;linkText=;textSize=17;textColor=#666666;callDir=NE;callStyle=line;fontSize=17;fontColor=#666666;align=right;verticalAlign=top;strokeColor=#666666;" parent="cvYz6UIour9g6zkGq-vF-2" vertex="1">
          <mxGeometry x="1410" y="279" width="200" height="100" as="geometry" />
        </mxCell>
        <mxCell id="cvYz6UIour9g6zkGq-vF-18" value="Barre de&amp;nbsp;&lt;div&gt;défilement&lt;/div&gt;" style="strokeWidth=1;shadow=0;dashed=0;align=center;html=1;shape=mxgraph.mockup.text.callout;linkText=;textSize=17;textColor=#666666;callDir=SW;callStyle=line;fontSize=17;fontColor=#ffffff;align=left;verticalAlign=bottom;strokeColor=#001DBC;fillColor=#0050ef;" parent="1" vertex="1">
          <mxGeometry x="-1510" y="-235" width="280" height="80" as="geometry" />
        </mxCell>
        <mxCell id="cvYz6UIour9g6zkGq-vF-19" value="&lt;font color=&quot;#ffffff&quot;&gt;C1&lt;/font&gt;" style="strokeWidth=1;shadow=0;dashed=0;align=center;html=1;shape=mxgraph.mockup.text.callout;linkText=;textSize=17;textColor=#666666;callDir=SW;callStyle=line;fontSize=17;fontColor=#666666;align=left;verticalAlign=bottom;strokeColor=#666666;" parent="1" vertex="1">
          <mxGeometry x="-1580" y="-716" width="200" height="100" as="geometry" />
        </mxCell>
        <mxCell id="cvYz6UIour9g6zkGq-vF-20" value="&lt;font color=&quot;#ffffff&quot;&gt;C2&lt;/font&gt;" style="strokeWidth=1;shadow=0;dashed=0;align=center;html=1;shape=mxgraph.mockup.text.callout;linkText=;textSize=17;textColor=#666666;callDir=NW;callStyle=line;fontSize=17;fontColor=#666666;align=left;verticalAlign=top;strokeColor=#666666;" parent="1" vertex="1">
          <mxGeometry x="-1510" y="-405" width="200" height="100" as="geometry" />
        </mxCell>
        <mxCell id="cvYz6UIour9g6zkGq-vF-21" value="" style="shape=mxgraph.mockup.containers.marginRect;rectMarginTop=10;strokeColor=#666666;strokeWidth=8;rounded=1;arcSize=5;recursiveResize=0;html=1;whiteSpace=wrap;movable=1;resizable=1;rotatable=1;deletable=1;editable=1;locked=0;connectable=1;" parent="1" vertex="1">
          <mxGeometry x="-1380" y="-1376" width="1490" height="600" as="geometry" />
        </mxCell>
        <mxCell id="cvYz6UIour9g6zkGq-vF-22" value="Les plus populaires" style="shape=rect;strokeColor=#3700CC;fillColor=#6a00ff;strokeWidth=1;dashed=0;rounded=1;arcSize=20;fontSize=22;spacing=2;spacingTop=-2;align=left;autosize=1;spacingLeft=4;resizeWidth=0;resizeHeight=0;perimeter=none;html=1;whiteSpace=wrap;fontColor=#ffffff;" parent="cvYz6UIour9g6zkGq-vF-21" vertex="1">
          <mxGeometry x="10" width="220" height="40" as="geometry" />
        </mxCell>
        <mxCell id="cvYz6UIour9g6zkGq-vF-23" value="" style="verticalLabelPosition=bottom;shadow=0;dashed=0;align=center;html=1;verticalAlign=top;strokeWidth=1;shape=mxgraph.mockup.navigation.scrollBar;strokeColor=#999999;barPos=20;fillColor2=#99ddff;strokeColor2=none;" parent="cvYz6UIour9g6zkGq-vF-21" vertex="1">
          <mxGeometry x="30" y="490" width="1440" height="151" as="geometry" />
        </mxCell>
        <mxCell id="cvYz6UIour9g6zkGq-vF-24" value="&lt;font style=&quot;font-size: 22px;&quot;&gt;&lt;b&gt;Titre&lt;/b&gt;&lt;/font&gt;&lt;br&gt;&lt;font style=&quot;font-size: 17px;&quot;&gt;Genre&lt;br&gt;Détails&lt;/font&gt;" style="html=1;shadow=0;dashed=0;shape=mxgraph.bootstrap.rrect;rSize=5;strokeColor=#DFDFDF;html=1;whiteSpace=wrap;fillColor=#ffffff;fontColor=#000000;verticalAlign=bottom;align=left;spacing=20;fontSize=20;movable=1;resizable=1;rotatable=1;deletable=1;editable=1;locked=0;connectable=1;" parent="cvYz6UIour9g6zkGq-vF-21" vertex="1">
          <mxGeometry x="1150" y="49" width="290" height="400" as="geometry" />
        </mxCell>
        <mxCell id="cvYz6UIour9g6zkGq-vF-25" value="Affiche du film" style="html=1;shadow=0;dashed=0;shape=mxgraph.bootstrap.topButton;rSize=5;perimeter=none;whiteSpace=wrap;fillColor=#868E96;strokeColor=#DFDFDF;fontColor=#DEE2E6;resizeWidth=1;fontSize=20;movable=1;resizable=1;rotatable=1;deletable=1;editable=1;locked=0;connectable=1;" parent="cvYz6UIour9g6zkGq-vF-24" vertex="1">
          <mxGeometry width="290" height="290" relative="1" as="geometry" />
        </mxCell>
        <mxCell id="cvYz6UIour9g6zkGq-vF-26" value="Ajouter au panier" style="rounded=1;fillColor=#008a00;strokeColor=#005700;html=1;whiteSpace=wrap;fontColor=#ffffff;align=center;verticalAlign=middle;fontStyle=0;fontSize=17;sketch=0;fontFamily=Helvetica;" parent="cvYz6UIour9g6zkGq-vF-24" vertex="1">
          <mxGeometry x="130.00478260869556" y="312.851045751634" width="126.08695652173914" height="52.28758169934641" as="geometry" />
        </mxCell>
        <mxCell id="cvYz6UIour9g6zkGq-vF-27" value="&lt;font style=&quot;font-size: 22px;&quot;&gt;&lt;b&gt;Titre&lt;/b&gt;&lt;/font&gt;&lt;br&gt;&lt;font style=&quot;font-size: 17px;&quot;&gt;Genre&lt;br&gt;Détails&lt;/font&gt;" style="html=1;shadow=0;dashed=0;shape=mxgraph.bootstrap.rrect;rSize=5;strokeColor=#DFDFDF;html=1;whiteSpace=wrap;fillColor=#ffffff;fontColor=#000000;verticalAlign=bottom;align=left;spacing=20;fontSize=20;movable=1;resizable=1;rotatable=1;deletable=1;editable=1;locked=0;connectable=1;" parent="cvYz6UIour9g6zkGq-vF-21" vertex="1">
          <mxGeometry x="790" y="49" width="290" height="400" as="geometry" />
        </mxCell>
        <mxCell id="cvYz6UIour9g6zkGq-vF-28" value="Affiche du film" style="html=1;shadow=0;dashed=0;shape=mxgraph.bootstrap.topButton;rSize=5;perimeter=none;whiteSpace=wrap;fillColor=#868E96;strokeColor=#DFDFDF;fontColor=#DEE2E6;resizeWidth=1;fontSize=20;movable=1;resizable=1;rotatable=1;deletable=1;editable=1;locked=0;connectable=1;" parent="cvYz6UIour9g6zkGq-vF-27" vertex="1">
          <mxGeometry width="290" height="290" relative="1" as="geometry" />
        </mxCell>
        <mxCell id="cvYz6UIour9g6zkGq-vF-29" value="Ajouter au panier" style="rounded=1;fillColor=#008a00;strokeColor=#005700;html=1;whiteSpace=wrap;fontColor=#ffffff;align=center;verticalAlign=middle;fontStyle=0;fontSize=17;sketch=0;fontFamily=Helvetica;" parent="cvYz6UIour9g6zkGq-vF-27" vertex="1">
          <mxGeometry x="130.00478260869556" y="312.851045751634" width="126.08695652173914" height="52.28758169934641" as="geometry" />
        </mxCell>
        <mxCell id="cvYz6UIour9g6zkGq-vF-30" value="&lt;font style=&quot;font-size: 22px;&quot;&gt;&lt;b&gt;Titre&lt;/b&gt;&lt;/font&gt;&lt;br&gt;&lt;font style=&quot;font-size: 17px;&quot;&gt;Genre&lt;br&gt;Détails&lt;/font&gt;" style="html=1;shadow=0;dashed=0;shape=mxgraph.bootstrap.rrect;rSize=5;strokeColor=#DFDFDF;html=1;whiteSpace=wrap;fillColor=#ffffff;fontColor=#000000;verticalAlign=bottom;align=left;spacing=20;fontSize=20;movable=1;resizable=1;rotatable=1;deletable=1;editable=1;locked=0;connectable=1;" parent="cvYz6UIour9g6zkGq-vF-21" vertex="1">
          <mxGeometry x="427" y="49" width="290" height="400" as="geometry" />
        </mxCell>
        <mxCell id="cvYz6UIour9g6zkGq-vF-31" value="Affiche du film" style="html=1;shadow=0;dashed=0;shape=mxgraph.bootstrap.topButton;rSize=5;perimeter=none;whiteSpace=wrap;fillColor=#868E96;strokeColor=#DFDFDF;fontColor=#DEE2E6;resizeWidth=1;fontSize=20;movable=1;resizable=1;rotatable=1;deletable=1;editable=1;locked=0;connectable=1;" parent="cvYz6UIour9g6zkGq-vF-30" vertex="1">
          <mxGeometry width="290" height="290" relative="1" as="geometry" />
        </mxCell>
        <mxCell id="cvYz6UIour9g6zkGq-vF-32" value="Ajouter au panier" style="rounded=1;fillColor=#008a00;strokeColor=#005700;html=1;whiteSpace=wrap;fontColor=#ffffff;align=center;verticalAlign=middle;fontStyle=0;fontSize=17;sketch=0;fontFamily=Helvetica;" parent="cvYz6UIour9g6zkGq-vF-30" vertex="1">
          <mxGeometry x="130.00478260869556" y="312.851045751634" width="126.08695652173914" height="52.28758169934641" as="geometry" />
        </mxCell>
        <mxCell id="cvYz6UIour9g6zkGq-vF-33" value="&lt;font style=&quot;font-size: 22px;&quot;&gt;&lt;b&gt;Titre&lt;/b&gt;&lt;/font&gt;&lt;br&gt;&lt;font style=&quot;font-size: 17px;&quot;&gt;Genre&lt;br&gt;Détails&lt;/font&gt;" style="html=1;shadow=0;dashed=0;shape=mxgraph.bootstrap.rrect;rSize=5;strokeColor=#DFDFDF;html=1;whiteSpace=wrap;fillColor=#ffffff;fontColor=#000000;verticalAlign=bottom;align=left;spacing=20;fontSize=20;movable=1;resizable=1;rotatable=1;deletable=1;editable=1;locked=0;connectable=1;" parent="cvYz6UIour9g6zkGq-vF-21" vertex="1">
          <mxGeometry x="60" y="49" width="290" height="400" as="geometry" />
        </mxCell>
        <mxCell id="cvYz6UIour9g6zkGq-vF-34" value="Affiche du film" style="html=1;shadow=0;dashed=0;shape=mxgraph.bootstrap.topButton;rSize=5;perimeter=none;whiteSpace=wrap;fillColor=#868E96;strokeColor=#DFDFDF;fontColor=#DEE2E6;resizeWidth=1;fontSize=20;movable=1;resizable=1;rotatable=1;deletable=1;editable=1;locked=0;connectable=1;" parent="cvYz6UIour9g6zkGq-vF-33" vertex="1">
          <mxGeometry width="290" height="290" relative="1" as="geometry" />
        </mxCell>
        <mxCell id="cvYz6UIour9g6zkGq-vF-35" value="Ajouter au panier" style="rounded=1;fillColor=#008a00;strokeColor=#005700;html=1;whiteSpace=wrap;fontColor=#ffffff;align=center;verticalAlign=middle;fontStyle=0;fontSize=17;sketch=0;fontFamily=Helvetica;" parent="cvYz6UIour9g6zkGq-vF-33" vertex="1">
          <mxGeometry x="130.00478260869556" y="312.851045751634" width="126.08695652173914" height="52.28758169934641" as="geometry" />
        </mxCell>
        <mxCell id="cvYz6UIour9g6zkGq-vF-36" value="&lt;font color=&quot;#ffffff&quot;&gt;C5&lt;/font&gt;" style="strokeWidth=1;shadow=0;dashed=0;align=center;html=1;shape=mxgraph.mockup.text.callout;linkText=;textSize=17;textColor=#666666;callDir=NE;callStyle=line;fontSize=17;fontColor=#666666;align=right;verticalAlign=top;strokeColor=#666666;" parent="cvYz6UIour9g6zkGq-vF-21" vertex="1">
          <mxGeometry x="1410" y="279" width="200" height="100" as="geometry" />
        </mxCell>
        <mxCell id="evL7qPlJDV0qZez4wCuW-1" value="&lt;font color=&quot;#ffffff&quot;&gt;C5&lt;/font&gt;" style="strokeWidth=1;shadow=0;dashed=0;align=center;html=1;shape=mxgraph.mockup.text.callout;linkText=;textSize=17;textColor=#666666;callDir=NW;callStyle=line;fontSize=17;fontColor=#666666;align=left;verticalAlign=top;strokeColor=#666666;" parent="cvYz6UIour9g6zkGq-vF-21" vertex="1">
          <mxGeometry x="-120" y="220" width="330" height="146" as="geometry" />
        </mxCell>
        <mxCell id="cvYz6UIour9g6zkGq-vF-37" value="Barre de&amp;nbsp;&lt;div&gt;défilement&lt;/div&gt;" style="strokeWidth=1;shadow=0;dashed=0;align=center;html=1;shape=mxgraph.mockup.text.callout;linkText=;textSize=17;textColor=#666666;callDir=SW;callStyle=line;fontSize=17;fontColor=#ffffff;align=left;verticalAlign=bottom;strokeColor=#001DBC;fillColor=#0050ef;" parent="1" vertex="1">
          <mxGeometry x="-1510" y="-876" width="280" height="80" as="geometry" />
        </mxCell>
        <mxCell id="cvYz6UIour9g6zkGq-vF-38" value="&lt;font color=&quot;#ffffff&quot;&gt;C1&lt;/font&gt;" style="strokeWidth=1;shadow=0;dashed=0;align=center;html=1;shape=mxgraph.mockup.text.callout;linkText=;textSize=17;textColor=#666666;callDir=SW;callStyle=line;fontSize=17;fontColor=#666666;align=left;verticalAlign=bottom;strokeColor=#666666;" parent="1" vertex="1">
          <mxGeometry x="-1580" y="-1357" width="200" height="100" as="geometry" />
        </mxCell>
        <mxCell id="cvYz6UIour9g6zkGq-vF-39" value="&lt;font color=&quot;#ffffff&quot;&gt;C2&lt;/font&gt;" style="strokeWidth=1;shadow=0;dashed=0;align=center;html=1;shape=mxgraph.mockup.text.callout;linkText=;textSize=17;textColor=#666666;callDir=NW;callStyle=line;fontSize=17;fontColor=#666666;align=left;verticalAlign=top;strokeColor=#666666;" parent="1" vertex="1">
          <mxGeometry x="-1498" y="-1057" width="200" height="100" as="geometry" />
        </mxCell>
        <mxCell id="cvYz6UIour9g6zkGq-vF-40" value="&lt;font color=&quot;#ffffff&quot;&gt;Catégories&lt;/font&gt;" style="strokeWidth=1;shadow=0;dashed=0;align=center;html=1;shape=mxgraph.mockup.text.callout;linkText=;textSize=17;textColor=#666666;callDir=NW;callStyle=line;fontSize=17;fontColor=#666666;align=left;verticalAlign=top;strokeColor=#666666;" parent="1" vertex="1">
          <mxGeometry x="-1550" y="-1476" width="200" height="100" as="geometry" />
        </mxCell>
        <mxCell id="cvYz6UIour9g6zkGq-vF-57" value="Barre de&amp;nbsp;&lt;div&gt;défilement&lt;/div&gt;" style="strokeWidth=1;shadow=0;dashed=0;align=center;html=1;shape=mxgraph.mockup.text.callout;linkText=;textSize=17;textColor=#666666;callDir=SW;callStyle=line;fontSize=17;fontColor=#ffffff;align=left;verticalAlign=bottom;strokeColor=#001DBC;fillColor=#0050ef;" parent="1" vertex="1">
          <mxGeometry x="-1510" y="424" width="280" height="80" as="geometry" />
        </mxCell>
        <mxCell id="cvYz6UIour9g6zkGq-vF-58" value="&lt;font color=&quot;#ffffff&quot;&gt;C1&lt;/font&gt;" style="strokeWidth=1;shadow=0;dashed=0;align=center;html=1;shape=mxgraph.mockup.text.callout;linkText=;textSize=17;textColor=#666666;callDir=SW;callStyle=line;fontSize=17;fontColor=#666666;align=left;verticalAlign=bottom;strokeColor=#666666;" parent="1" vertex="1">
          <mxGeometry x="-1580" y="-57" width="200" height="100" as="geometry" />
        </mxCell>
        <mxCell id="cvYz6UIour9g6zkGq-vF-59" value="&lt;font color=&quot;#ffffff&quot;&gt;C2&lt;/font&gt;" style="strokeWidth=1;shadow=0;dashed=0;align=center;html=1;shape=mxgraph.mockup.text.callout;linkText=;textSize=17;textColor=#666666;callDir=NW;callStyle=line;fontSize=17;fontColor=#666666;align=left;verticalAlign=top;strokeColor=#666666;" parent="1" vertex="1">
          <mxGeometry x="-1510" y="254" width="200" height="100" as="geometry" />
        </mxCell>
        <mxCell id="cvYz6UIour9g6zkGq-vF-60" value="" style="shape=mxgraph.mockup.containers.marginRect;rectMarginTop=10;strokeColor=#666666;strokeWidth=8;rounded=1;arcSize=5;recursiveResize=0;html=1;whiteSpace=wrap;movable=1;resizable=1;rotatable=1;deletable=1;editable=1;locked=0;connectable=1;" parent="1" vertex="1">
          <mxGeometry x="-1380" y="-76" width="1490" height="600" as="geometry" />
        </mxCell>
        <mxCell id="cvYz6UIour9g6zkGq-vF-61" value="Drames" style="shape=rect;strokeColor=#3700CC;fillColor=#6a00ff;strokeWidth=1;dashed=0;rounded=1;arcSize=20;fontSize=22;spacing=2;spacingTop=-2;align=left;autosize=1;spacingLeft=4;resizeWidth=0;resizeHeight=0;perimeter=none;html=1;whiteSpace=wrap;fontColor=#ffffff;" parent="cvYz6UIour9g6zkGq-vF-60" vertex="1">
          <mxGeometry x="10" width="100" height="40" as="geometry" />
        </mxCell>
        <mxCell id="cvYz6UIour9g6zkGq-vF-62" value="" style="verticalLabelPosition=bottom;shadow=0;dashed=0;align=center;html=1;verticalAlign=top;strokeWidth=1;shape=mxgraph.mockup.navigation.scrollBar;strokeColor=#999999;barPos=20;fillColor2=#99ddff;strokeColor2=none;" parent="cvYz6UIour9g6zkGq-vF-60" vertex="1">
          <mxGeometry x="30" y="490" width="1440" height="151" as="geometry" />
        </mxCell>
        <mxCell id="cvYz6UIour9g6zkGq-vF-63" value="&lt;font style=&quot;font-size: 22px;&quot;&gt;&lt;b&gt;Titre&lt;/b&gt;&lt;/font&gt;&lt;br&gt;&lt;font style=&quot;font-size: 17px;&quot;&gt;Genre&lt;br&gt;Détails&lt;/font&gt;" style="html=1;shadow=0;dashed=0;shape=mxgraph.bootstrap.rrect;rSize=5;strokeColor=#DFDFDF;html=1;whiteSpace=wrap;fillColor=#ffffff;fontColor=#000000;verticalAlign=bottom;align=left;spacing=20;fontSize=20;movable=1;resizable=1;rotatable=1;deletable=1;editable=1;locked=0;connectable=1;" parent="cvYz6UIour9g6zkGq-vF-60" vertex="1">
          <mxGeometry x="1150" y="49" width="290" height="400" as="geometry" />
        </mxCell>
        <mxCell id="cvYz6UIour9g6zkGq-vF-64" value="Affiche du film" style="html=1;shadow=0;dashed=0;shape=mxgraph.bootstrap.topButton;rSize=5;perimeter=none;whiteSpace=wrap;fillColor=#868E96;strokeColor=#DFDFDF;fontColor=#DEE2E6;resizeWidth=1;fontSize=20;movable=1;resizable=1;rotatable=1;deletable=1;editable=1;locked=0;connectable=1;" parent="cvYz6UIour9g6zkGq-vF-63" vertex="1">
          <mxGeometry width="290" height="290" relative="1" as="geometry" />
        </mxCell>
        <mxCell id="cvYz6UIour9g6zkGq-vF-65" value="Ajouter au panier" style="rounded=1;fillColor=#008a00;strokeColor=#005700;html=1;whiteSpace=wrap;fontColor=#ffffff;align=center;verticalAlign=middle;fontStyle=0;fontSize=17;sketch=0;fontFamily=Helvetica;" parent="cvYz6UIour9g6zkGq-vF-63" vertex="1">
          <mxGeometry x="130.00478260869556" y="312.851045751634" width="126.08695652173914" height="52.28758169934641" as="geometry" />
        </mxCell>
        <mxCell id="cvYz6UIour9g6zkGq-vF-66" value="&lt;font style=&quot;font-size: 22px;&quot;&gt;&lt;b&gt;Titre&lt;/b&gt;&lt;/font&gt;&lt;br&gt;&lt;font style=&quot;font-size: 17px;&quot;&gt;Genre&lt;br&gt;Détails&lt;/font&gt;" style="html=1;shadow=0;dashed=0;shape=mxgraph.bootstrap.rrect;rSize=5;strokeColor=#DFDFDF;html=1;whiteSpace=wrap;fillColor=#ffffff;fontColor=#000000;verticalAlign=bottom;align=left;spacing=20;fontSize=20;movable=1;resizable=1;rotatable=1;deletable=1;editable=1;locked=0;connectable=1;" parent="cvYz6UIour9g6zkGq-vF-60" vertex="1">
          <mxGeometry x="790" y="49" width="290" height="400" as="geometry" />
        </mxCell>
        <mxCell id="cvYz6UIour9g6zkGq-vF-67" value="Affiche du film" style="html=1;shadow=0;dashed=0;shape=mxgraph.bootstrap.topButton;rSize=5;perimeter=none;whiteSpace=wrap;fillColor=#868E96;strokeColor=#DFDFDF;fontColor=#DEE2E6;resizeWidth=1;fontSize=20;movable=1;resizable=1;rotatable=1;deletable=1;editable=1;locked=0;connectable=1;" parent="cvYz6UIour9g6zkGq-vF-66" vertex="1">
          <mxGeometry width="290" height="290" relative="1" as="geometry" />
        </mxCell>
        <mxCell id="cvYz6UIour9g6zkGq-vF-68" value="Ajouter au panier" style="rounded=1;fillColor=#008a00;strokeColor=#005700;html=1;whiteSpace=wrap;fontColor=#ffffff;align=center;verticalAlign=middle;fontStyle=0;fontSize=17;sketch=0;fontFamily=Helvetica;" parent="cvYz6UIour9g6zkGq-vF-66" vertex="1">
          <mxGeometry x="130.00478260869556" y="312.851045751634" width="126.08695652173914" height="52.28758169934641" as="geometry" />
        </mxCell>
        <mxCell id="cvYz6UIour9g6zkGq-vF-69" value="&lt;font style=&quot;font-size: 22px;&quot;&gt;&lt;b&gt;Titre&lt;/b&gt;&lt;/font&gt;&lt;br&gt;&lt;font style=&quot;font-size: 17px;&quot;&gt;Genre&lt;br&gt;Détails&lt;/font&gt;" style="html=1;shadow=0;dashed=0;shape=mxgraph.bootstrap.rrect;rSize=5;strokeColor=#DFDFDF;html=1;whiteSpace=wrap;fillColor=#ffffff;fontColor=#000000;verticalAlign=bottom;align=left;spacing=20;fontSize=20;movable=1;resizable=1;rotatable=1;deletable=1;editable=1;locked=0;connectable=1;" parent="cvYz6UIour9g6zkGq-vF-60" vertex="1">
          <mxGeometry x="427" y="49" width="290" height="400" as="geometry" />
        </mxCell>
        <mxCell id="cvYz6UIour9g6zkGq-vF-70" value="Affiche du film" style="html=1;shadow=0;dashed=0;shape=mxgraph.bootstrap.topButton;rSize=5;perimeter=none;whiteSpace=wrap;fillColor=#868E96;strokeColor=#DFDFDF;fontColor=#DEE2E6;resizeWidth=1;fontSize=20;movable=1;resizable=1;rotatable=1;deletable=1;editable=1;locked=0;connectable=1;" parent="cvYz6UIour9g6zkGq-vF-69" vertex="1">
          <mxGeometry width="290" height="290" relative="1" as="geometry" />
        </mxCell>
        <mxCell id="cvYz6UIour9g6zkGq-vF-71" value="Ajouter au panier" style="rounded=1;fillColor=#008a00;strokeColor=#005700;html=1;whiteSpace=wrap;fontColor=#ffffff;align=center;verticalAlign=middle;fontStyle=0;fontSize=17;sketch=0;fontFamily=Helvetica;" parent="cvYz6UIour9g6zkGq-vF-69" vertex="1">
          <mxGeometry x="130.00478260869556" y="312.851045751634" width="126.08695652173914" height="52.28758169934641" as="geometry" />
        </mxCell>
        <mxCell id="cvYz6UIour9g6zkGq-vF-72" value="&lt;font style=&quot;font-size: 22px;&quot;&gt;&lt;b&gt;Titre&lt;/b&gt;&lt;/font&gt;&lt;br&gt;&lt;font style=&quot;font-size: 17px;&quot;&gt;Genre&lt;br&gt;Détails&lt;/font&gt;" style="html=1;shadow=0;dashed=0;shape=mxgraph.bootstrap.rrect;rSize=5;strokeColor=#DFDFDF;html=1;whiteSpace=wrap;fillColor=#ffffff;fontColor=#000000;verticalAlign=bottom;align=left;spacing=20;fontSize=20;movable=1;resizable=1;rotatable=1;deletable=1;editable=1;locked=0;connectable=1;" parent="cvYz6UIour9g6zkGq-vF-60" vertex="1">
          <mxGeometry x="60" y="49" width="290" height="400" as="geometry" />
        </mxCell>
        <mxCell id="cvYz6UIour9g6zkGq-vF-73" value="Affiche du film" style="html=1;shadow=0;dashed=0;shape=mxgraph.bootstrap.topButton;rSize=5;perimeter=none;whiteSpace=wrap;fillColor=#868E96;strokeColor=#DFDFDF;fontColor=#DEE2E6;resizeWidth=1;fontSize=20;movable=1;resizable=1;rotatable=1;deletable=1;editable=1;locked=0;connectable=1;" parent="cvYz6UIour9g6zkGq-vF-72" vertex="1">
          <mxGeometry width="290" height="290" relative="1" as="geometry" />
        </mxCell>
        <mxCell id="cvYz6UIour9g6zkGq-vF-74" value="Ajouter au panier" style="rounded=1;fillColor=#008a00;strokeColor=#005700;html=1;whiteSpace=wrap;fontColor=#ffffff;align=center;verticalAlign=middle;fontStyle=0;fontSize=17;sketch=0;fontFamily=Helvetica;" parent="cvYz6UIour9g6zkGq-vF-72" vertex="1">
          <mxGeometry x="130.00478260869556" y="312.851045751634" width="126.08695652173914" height="52.28758169934641" as="geometry" />
        </mxCell>
        <mxCell id="cvYz6UIour9g6zkGq-vF-75" value="&lt;font color=&quot;#ffffff&quot;&gt;C5&lt;/font&gt;" style="strokeWidth=1;shadow=0;dashed=0;align=center;html=1;shape=mxgraph.mockup.text.callout;linkText=;textSize=17;textColor=#666666;callDir=NE;callStyle=line;fontSize=17;fontColor=#666666;align=right;verticalAlign=top;strokeColor=#666666;" parent="cvYz6UIour9g6zkGq-vF-60" vertex="1">
          <mxGeometry x="1410" y="279" width="200" height="100" as="geometry" />
        </mxCell>
        <mxCell id="Lu5Cbigs50gL8Fq9Twlk-1" value="" style="group;movable=1;resizable=1;rotatable=1;deletable=1;editable=1;locked=0;connectable=1;" vertex="1" connectable="0" parent="1">
          <mxGeometry x="-670" y="-1790" width="930" height="280" as="geometry" />
        </mxCell>
        <mxCell id="Lu5Cbigs50gL8Fq9Twlk-2" value="" style="swimlane;shape=mxgraph.bootstrap.anchor;strokeColor=#999999;fillColor=#ffffff;fontColor=#666666;childLayout=stackLayout;horizontal=0;startSize=0;horizontalStack=1;resizeParent=1;resizeParentMax=0;resizeLast=0;collapsible=0;marginBottom=0;whiteSpace=wrap;html=1;" vertex="1" parent="Lu5Cbigs50gL8Fq9Twlk-1">
          <mxGeometry x="20" y="230" width="720" height="30" as="geometry" />
        </mxCell>
        <mxCell id="Lu5Cbigs50gL8Fq9Twlk-3" value="Catalogue" style="text;strokeColor=#FFFFFF;align=center;verticalAlign=middle;spacingLeft=10;spacingRight=10;overflow=hidden;points=[[0,0.5],[1,0.5]];portConstraint=eastwest;rotatable=0;whiteSpace=wrap;html=1;fillColor=#BAC8D3;fontColor=#FFFFFF;fontSize=17;" vertex="1" parent="Lu5Cbigs50gL8Fq9Twlk-2">
          <mxGeometry width="120" height="30" as="geometry" />
        </mxCell>
        <mxCell id="Lu5Cbigs50gL8Fq9Twlk-4" value="Acteurs" style="text;strokeColor=inherit;align=center;verticalAlign=middle;spacingLeft=10;spacingRight=10;overflow=hidden;points=[[0,0.5],[1,0.5]];portConstraint=eastwest;rotatable=0;whiteSpace=wrap;html=1;fillColor=inherit;fontColor=inherit;fontSize=17;" vertex="1" parent="Lu5Cbigs50gL8Fq9Twlk-2">
          <mxGeometry x="120" width="120" height="30" as="geometry" />
        </mxCell>
        <mxCell id="Lu5Cbigs50gL8Fq9Twlk-5" value="Mon compte" style="text;strokeColor=inherit;align=center;verticalAlign=middle;spacingLeft=10;spacingRight=10;overflow=hidden;points=[[0,0.5],[1,0.5]];portConstraint=eastwest;rotatable=0;whiteSpace=wrap;html=1;fillColor=inherit;fontColor=inherit;fontSize=17;" vertex="1" parent="Lu5Cbigs50gL8Fq9Twlk-2">
          <mxGeometry x="240" width="120" height="30" as="geometry" />
        </mxCell>
        <mxCell id="Lu5Cbigs50gL8Fq9Twlk-6" value="Utilisateurs" style="text;strokeColor=inherit;align=center;verticalAlign=middle;spacingLeft=10;spacingRight=10;overflow=hidden;points=[[0,0.5],[1,0.5]];portConstraint=eastwest;rotatable=0;whiteSpace=wrap;html=1;fillColor=inherit;fontColor=inherit;fontSize=17;" vertex="1" parent="Lu5Cbigs50gL8Fq9Twlk-2">
          <mxGeometry x="360" width="120" height="30" as="geometry" />
        </mxCell>
        <mxCell id="Lu5Cbigs50gL8Fq9Twlk-7" value="Locations" style="text;strokeColor=#23445d;align=center;verticalAlign=middle;spacingLeft=10;spacingRight=10;overflow=hidden;points=[[0,0.5],[1,0.5]];portConstraint=eastwest;rotatable=0;whiteSpace=wrap;html=1;fillColor=#FFFFFF;fontSize=17;fontColor=#000000;" vertex="1" parent="Lu5Cbigs50gL8Fq9Twlk-2">
          <mxGeometry x="480" width="120" height="30" as="geometry" />
        </mxCell>
        <mxCell id="Lu5Cbigs50gL8Fq9Twlk-8" value="Déconnexion&amp;nbsp;" style="text;strokeColor=#6F0000;align=center;verticalAlign=middle;spacingLeft=10;spacingRight=10;overflow=hidden;points=[[0,0.5],[1,0.5]];portConstraint=eastwest;rotatable=0;whiteSpace=wrap;html=1;fillColor=#a20025;fontColor=#ffffff;fontSize=17;" vertex="1" parent="Lu5Cbigs50gL8Fq9Twlk-2">
          <mxGeometry x="600" width="120" height="30" as="geometry" />
        </mxCell>
        <mxCell id="Lu5Cbigs50gL8Fq9Twlk-9" value="C4" style="strokeWidth=1;shadow=0;dashed=0;align=center;html=1;shape=mxgraph.mockup.text.callout;linkText=;textSize=17;textColor=#666666;callDir=NE;callStyle=line;fontSize=17;align=right;verticalAlign=top;strokeColor=#005700;fillColor=#008a00;fontColor=#ffffff;" vertex="1" parent="Lu5Cbigs50gL8Fq9Twlk-1">
          <mxGeometry x="200" width="160" height="230" as="geometry" />
        </mxCell>
        <mxCell id="Lu5Cbigs50gL8Fq9Twlk-10" value="C1" style="strokeWidth=1;shadow=0;dashed=0;align=center;html=1;shape=mxgraph.mockup.text.callout;linkText=;textSize=17;textColor=#666666;callDir=NE;callStyle=line;fontSize=17;align=right;verticalAlign=top;strokeColor=#005700;fillColor=#008a00;fontColor=#ffffff;" vertex="1" parent="Lu5Cbigs50gL8Fq9Twlk-1">
          <mxGeometry x="80" width="160" height="230" as="geometry" />
        </mxCell>
        <mxCell id="Lu5Cbigs50gL8Fq9Twlk-11" value="C17" style="strokeWidth=1;shadow=0;dashed=0;align=center;html=1;shape=mxgraph.mockup.text.callout;linkText=;textSize=17;textColor=#666666;callDir=NE;callStyle=line;fontSize=17;align=right;verticalAlign=top;strokeColor=#005700;fillColor=#008a00;fontColor=#ffffff;" vertex="1" parent="Lu5Cbigs50gL8Fq9Twlk-1">
          <mxGeometry x="320" width="160" height="230" as="geometry" />
        </mxCell>
        <mxCell id="Lu5Cbigs50gL8Fq9Twlk-12" value="C19" style="strokeWidth=1;shadow=0;dashed=0;align=center;html=1;shape=mxgraph.mockup.text.callout;linkText=;textSize=17;textColor=#666666;callDir=NE;callStyle=line;fontSize=17;align=right;verticalAlign=top;strokeColor=#005700;fillColor=#008a00;fontColor=#ffffff;" vertex="1" parent="Lu5Cbigs50gL8Fq9Twlk-1">
          <mxGeometry x="560" width="160" height="230" as="geometry" />
        </mxCell>
        <mxCell id="Lu5Cbigs50gL8Fq9Twlk-13" value="" style="verticalLabelPosition=bottom;shadow=0;dashed=0;align=center;html=1;verticalAlign=top;strokeWidth=1;shape=mxgraph.mockup.misc.shoppingCart;strokeColor=#999999;" vertex="1" parent="Lu5Cbigs50gL8Fq9Twlk-1">
          <mxGeometry x="760" y="220" width="50" height="50" as="geometry" />
        </mxCell>
        <mxCell id="Lu5Cbigs50gL8Fq9Twlk-14" value="C46" style="strokeWidth=1;shadow=0;dashed=0;align=center;html=1;shape=mxgraph.mockup.text.callout;linkText=;textSize=17;textColor=#666666;callDir=NE;callStyle=line;fontSize=17;align=right;verticalAlign=top;strokeColor=#005700;fillColor=#008a00;fontColor=#ffffff;" vertex="1" parent="Lu5Cbigs50gL8Fq9Twlk-1">
          <mxGeometry x="680" width="160" height="230" as="geometry" />
        </mxCell>
        <mxCell id="Lu5Cbigs50gL8Fq9Twlk-15" value="C9" style="strokeWidth=1;shadow=0;dashed=0;align=center;html=1;shape=mxgraph.mockup.text.callout;linkText=;textSize=17;textColor=#666666;callDir=NE;callStyle=line;fontSize=17;align=right;verticalAlign=top;strokeColor=#005700;fillColor=#008a00;fontColor=#ffffff;container=0;" vertex="1" parent="Lu5Cbigs50gL8Fq9Twlk-1">
          <mxGeometry x="770" width="160" height="230" as="geometry" />
        </mxCell>
        <mxCell id="Lu5Cbigs50gL8Fq9Twlk-16" value="C42" style="strokeWidth=1;shadow=0;dashed=0;align=center;html=1;shape=mxgraph.mockup.text.callout;linkText=;textSize=17;textColor=#666666;callDir=NE;callStyle=line;fontSize=17;align=right;verticalAlign=top;strokeColor=#005700;fillColor=#008a00;fontColor=#ffffff;" vertex="1" parent="Lu5Cbigs50gL8Fq9Twlk-1">
          <mxGeometry x="433" y="1" width="160" height="230" as="geometry" />
        </mxCell>
      </root>
    </mxGraphModel>
  </diagram>
</mxfile>
